<svg xmlns="http://www.w3.org/2000/svg" width="20" height="20" viewBox="0 0 20 20"><defs><style>.a{fill:#fff;}</style></defs><g transform="translate(-4.5 -4.5)"><path class="a" d="M20.979,7.766a.977.977,0,0,0-.615-.214.952.952,0,0,0-.719.318.864.864,0,0,0-.224.662.892.892,0,0,0,.333.617,7.524,7.524,0,0,1,2.854,5.842,7.919,7.919,0,0,1-8.1,7.7,7.922,7.922,0,0,1-8.1-7.7A7.509,7.509,0,0,1,9.255,9.149a.882.882,0,0,0,.333-.617.87.87,0,0,0-.224-.662.979.979,0,0,0-1.333-.1A9.28,9.28,0,0,0,4.5,14.986a9.777,9.777,0,0,0,10,9.514,9.777,9.777,0,0,0,10-9.514A9.3,9.3,0,0,0,20.979,7.766Z"/><path class="a" d="M18.063,19.3a1.3,1.3,0,0,0,1.3-1.3V5.8a1.3,1.3,0,0,0-2.6,0V18A1.3,1.3,0,0,0,18.063,19.3Z" transform="translate(-3.518)"/></g></svg>