<svg xmlns="http://www.w3.org/2000/svg" width="68.649" height="68.649" viewBox="0 0 68.649 68.649"><defs><style>.a{fill:#8dc63f;}</style></defs><g transform="translate(-3.375 -3.375)"><path class="a" d="M45.782,15.391l-2.9-2.987a.624.624,0,0,0-.462-.2h0a.6.6,0,0,0-.462.2L21.821,32.685l-7.327-7.327a.638.638,0,0,0-.924,0L10.632,28.3a.658.658,0,0,0,0,.941l9.241,9.241a2.923,2.923,0,0,0,1.931.941,3.062,3.062,0,0,0,1.914-.908h.017L45.8,16.332A.705.705,0,0,0,45.782,15.391Z" transform="translate(9.509 11.895)"/><path class="a" d="M37.7,8A29.709,29.709,0,0,1,58.706,58.706,29.709,29.709,0,0,1,16.692,16.692,29.507,29.507,0,0,1,37.7,8m0-4.621A34.324,34.324,0,1,0,72.024,37.7,34.319,34.319,0,0,0,37.7,3.375Z" transform="translate(0)"/></g></svg>